<svg width="22" height="23" viewBox="0 0 22 23" fill="none" xmlns="http://www.w3.org/2000/svg">
<g id="home">
<g id="Subtract">
<path d="M10.9532 22.1164L11 22.1194L11.0468 22.1164L16.279 21.7894C18.6517 21.6411 20.4997 19.6728 20.4983 17.2955L20.4947 11.3105C20.4941 10.1652 20.0566 9.06315 19.2716 8.22908L14.2709 2.91585C12.4942 1.02805 9.4939 1.02805 7.71714 2.91586L2.7231 8.22203C1.93746 9.05677 1.5 10.1599 1.5 11.3062V17.2981C1.5 19.6744 3.34764 21.6411 5.7193 21.7893L10.9532 22.1164Z" stroke="#3E4554" stroke-width="1.5" stroke-linecap="round"/>
<path d="M10.9532 22.1164L11 22.1194L11.0468 22.1164L16.279 21.7894C18.6517 21.6411 20.4997 19.6728 20.4983 17.2955L20.4947 11.3105C20.4941 10.1652 20.0566 9.06315 19.2716 8.22908L14.2709 2.91585C12.4942 1.02805 9.4939 1.02805 7.71714 2.91586L2.7231 8.22203C1.93746 9.05677 1.5 10.1599 1.5 11.3062V17.2981C1.5 19.6744 3.34764 21.6411 5.7193 21.7893L10.9532 22.1164Z" stroke="black" stroke-opacity="0.2" stroke-width="1.5" stroke-linecap="round"/>
</g>
</g>
</svg>
